<?xml version="1.0" encoding="UTF-8"?>
<svg xmlns="http://www.w3.org/2000/svg" viewBox="-50 -50 100 100">
  <style>
    .line {
      stroke: white;
      stroke-width: 0.3;
      transform-origin: 0 0;
      animation: line-animation 3s cubic-bezier(.5, 0, .5, 1) alternate infinite;
    }
    
    @keyframes line-animation {
      from { transform: scaleX(0.4); }
      to { transform: scaleX(1); }
    }
  </style>
  
  <!-- Generate lines for a complete 360-degree circle -->
  <g>
    <!-- 0 degrees -->
    <g transform="rotate(0) translate(20, 0)">
      <line class="line" style="animation-delay: -0.1s" x1="0" x2="20" y1="0" y2="0" />
    </g>
    <!-- 10 degrees -->
    <g transform="rotate(10) translate(20, 0)">
      <line class="line" style="animation-delay: -0.2s" x1="0" x2="20" y1="0" y2="0" />
    </g>
    <!-- 20 degrees -->
    <g transform="rotate(20) translate(20, 0)">
      <line class="line" style="animation-delay: -0.3s" x1="0" x2="20" y1="0" y2="0" />
    </g>
    <!-- 30 degrees -->
    <g transform="rotate(30) translate(20, 0)">
      <line class="line" style="animation-delay: -0.4s" x1="0" x2="20" y1="0" y2="0" />
    </g>
    <!-- 40 degrees -->
    <g transform="rotate(40) translate(20, 0)">
      <line class="line" style="animation-delay: -0.5s" x1="0" x2="20" y1="0" y2="0" />
    </g>
    <!-- 50 degrees -->
    <g transform="rotate(50) translate(20, 0)">
      <line class="line" style="animation-delay: -0.6s" x1="0" x2="20" y1="0" y2="0" />
    </g>
    <!-- 60 degrees -->
    <g transform="rotate(60) translate(20, 0)">
      <line class="line" style="animation-delay: -0.7s" x1="0" x2="20" y1="0" y2="0" />
    </g>
    <!-- 70 degrees -->
    <g transform="rotate(70) translate(20, 0)">
      <line class="line" style="animation-delay: -0.8s" x1="0" x2="20" y1="0" y2="0" />
    </g>
    <!-- 80 degrees -->
    <g transform="rotate(80) translate(20, 0)">
      <line class="line" style="animation-delay: -0.9s" x1="0" x2="20" y1="0" y2="0" />
    </g>
    <!-- 90 degrees -->
    <g transform="rotate(90) translate(20, 0)">
      <line class="line" style="animation-delay: -1.0s" x1="0" x2="20" y1="0" y2="0" />
    </g>
    <!-- 100 degrees -->
    <g transform="rotate(100) translate(20, 0)">
      <line class="line" style="animation-delay: -1.1s" x1="0" x2="20" y1="0" y2="0" />
    </g>
    <!-- 110 degrees -->
    <g transform="rotate(110) translate(20, 0)">
      <line class="line" style="animation-delay: -1.2s" x1="0" x2="20" y1="0" y2="0" />
    </g>
    <!-- 120 degrees -->
    <g transform="rotate(120) translate(20, 0)">
      <line class="line" style="animation-delay: -1.3s" x1="0" x2="20" y1="0" y2="0" />
    </g>
    <!-- 130 degrees -->
    <g transform="rotate(130) translate(20, 0)">
      <line class="line" style="animation-delay: -1.4s" x1="0" x2="20" y1="0" y2="0" />
    </g>
    <!-- 140 degrees -->
    <g transform="rotate(140) translate(20, 0)">
      <line class="line" style="animation-delay: -1.5s" x1="0" x2="20" y1="0" y2="0" />
    </g>
    <!-- 150 degrees -->
    <g transform="rotate(150) translate(20, 0)">
      <line class="line" style="animation-delay: -1.6s" x1="0" x2="20" y1="0" y2="0" />
    </g>
    <!-- 160 degrees -->
    <g transform="rotate(160) translate(20, 0)">
      <line class="line" style="animation-delay: -1.7s" x1="0" x2="20" y1="0" y2="0" />
    </g>
    <!-- 170 degrees -->
    <g transform="rotate(170) translate(20, 0)">
      <line class="line" style="animation-delay: -1.8s" x1="0" x2="20" y1="0" y2="0" />
    </g>
    <!-- 180 degrees -->
    <g transform="rotate(180) translate(20, 0)">
      <line class="line" style="animation-delay: -1.9s" x1="0" x2="20" y1="0" y2="0" />
    </g>
    <!-- 190 degrees -->
    <g transform="rotate(190) translate(20, 0)">
      <line class="line" style="animation-delay: -2.0s" x1="0" x2="20" y1="0" y2="0" />
    </g>
    <!-- 200 degrees -->
    <g transform="rotate(200) translate(20, 0)">
      <line class="line" style="animation-delay: -2.1s" x1="0" x2="20" y1="0" y2="0" />
    </g>
    <!-- 210 degrees -->
    <g transform="rotate(210) translate(20, 0)">
      <line class="line" style="animation-delay: -2.2s" x1="0" x2="20" y1="0" y2="0" />
    </g>
    <!-- 220 degrees -->
    <g transform="rotate(220) translate(20, 0)">
      <line class="line" style="animation-delay: -2.3s" x1="0" x2="20" y1="0" y2="0" />
    </g>
    <!-- 230 degrees -->
    <g transform="rotate(230) translate(20, 0)">
      <line class="line" style="animation-delay: -2.4s" x1="0" x2="20" y1="0" y2="0" />
    </g>
    <!-- 240 degrees -->
    <g transform="rotate(240) translate(20, 0)">
      <line class="line" style="animation-delay: -2.5s" x1="0" x2="20" y1="0" y2="0" />
    </g>
    <!-- 250 degrees -->
    <g transform="rotate(250) translate(20, 0)">
      <line class="line" style="animation-delay: -2.6s" x1="0" x2="20" y1="0" y2="0" />
    </g>
    <!-- 260 degrees -->
    <g transform="rotate(260) translate(20, 0)">
      <line class="line" style="animation-delay: -2.7s" x1="0" x2="20" y1="0" y2="0" />
    </g>
    <!-- 270 degrees -->
    <g transform="rotate(270) translate(20, 0)">
      <line class="line" style="animation-delay: -2.8s" x1="0" x2="20" y1="0" y2="0" />
    </g>
    <!-- 280 degrees -->
    <g transform="rotate(280) translate(20, 0)">
      <line class="line" style="animation-delay: -2.9s" x1="0" x2="20" y1="0" y2="0" />
    </g>
    <!-- 290 degrees -->
    <g transform="rotate(290) translate(20, 0)">
      <line class="line" style="animation-delay: -3.0s" x1="0" x2="20" y1="0" y2="0" />
    </g>
    <!-- 300 degrees -->
    <g transform="rotate(300) translate(20, 0)">
      <line class="line" style="animation-delay: -3.1s" x1="0" x2="20" y1="0" y2="0" />
    </g>
    <!-- 310 degrees -->
    <g transform="rotate(310) translate(20, 0)">
      <line class="line" style="animation-delay: -3.2s" x1="0" x2="20" y1="0" y2="0" />
    </g>
    <!-- 320 degrees -->
    <g transform="rotate(320) translate(20, 0)">
      <line class="line" style="animation-delay: -3.3s" x1="0" x2="20" y1="0" y2="0" />
    </g>
    <!-- 330 degrees -->
    <g transform="rotate(330) translate(20, 0)">
      <line class="line" style="animation-delay: -3.4s" x1="0" x2="20" y1="0" y2="0" />
    </g>
    <!-- 340 degrees -->
    <g transform="rotate(340) translate(20, 0)">
      <line class="line" style="animation-delay: -3.5s" x1="0" x2="20" y1="0" y2="0" />
    </g>
    <!-- 350 degrees -->
    <g transform="rotate(350) translate(20, 0)">
      <line class="line" style="animation-delay: -3.6s" x1="0" x2="20" y1="0" y2="0" />
    </g>
  </g>
</svg>
